<?xml version="1.0" encoding="utf-8"?>
<!-- Generator: Adobe Illustrator 22.1.0, SVG Export Plug-In . SVG Version: 6.00 Build 0)  -->
<svg version="1.1" id="Capa_1" xmlns="http://www.w3.org/2000/svg" xmlns:xlink="http://www.w3.org/1999/xlink" x="0px" y="0px"
	 width="15.6px" height="20px" viewBox="0 0 15.6 20" style="enable-background:new 0 0 15.6 20;" xml:space="preserve">
<style type="text/css">
	.st0{fill:#010002;}
</style>
<g>
	<g>
		<g>
			<path class="st0" d="M15.5,5.6c-0.5-4-4.5-6-8.7-5.5C3.5,0.4,0.1,3.1,0,7c-0.1,2.3,0.6,4.1,2.8,4.6c1-1.7-0.3-2.1-0.5-3.3
				c-0.8-5.1,5.8-8.5,9.3-5c2.4,2.5,0.8,10-3.1,9.2c-3.7-0.7,1.8-6.7-1.1-7.9C5,3.6,3.7,7.5,4.9,9.4C4.2,12.7,2.7,15.8,3.3,20
				c1.9-1.4,2.5-4,3.1-6.8c1,0.6,1.5,1.2,2.7,1.3C13.6,14.9,16.1,10,15.5,5.6z"/>
		</g>
	</g>
</g>
</svg>
