<?xml version="1.0" encoding="utf-8"?>
<!-- Generator: Adobe Illustrator 22.1.0, SVG Export Plug-In . SVG Version: 6.00 Build 0)  -->
<svg version="1.1" id="Layer_1" xmlns="http://www.w3.org/2000/svg" xmlns:xlink="http://www.w3.org/1999/xlink" x="0px" y="0px"
	 width="45px" height="57.8px" viewBox="0 0 45 57.8" style="enable-background:new 0 0 45 57.8;" xml:space="preserve">
<style type="text/css">
	.st0{fill:#36563D;}
</style>
<g>
	<g>
		<path class="st0" d="M41.1,9.7l3.9,3.9v-1.1l-3.9-3.9l0,0l-8.3-8.3c-0.1-0.1-0.3-0.2-0.4-0.3C32.3,0.1,32.1,0,31.9,0h-0.6h-0.6
			h-1.1H29h-1.1h-0.6h-1.1h-0.6h-1.1h-0.7h-1.1h-0.6h-1.1h-0.6h-1.1h-0.6h-1.1H17H16h-0.6h-1.1h-0.6h-1.1H12h-1.1h-0.6H9.6
			C9.5,0,9.4,0,9.3,0.1C9.1,0.1,8.9,0.2,8.8,0.2C8.6,0.3,8.4,0.4,8.3,0.6L8.2,0.6L7.9,1L7.4,1.5L7,1.8L6.5,2.3L6,2.6L5.5,3.2
			L5.1,3.5L4.6,4.1L4.3,4.4L3.8,4.9L3.4,5.2L2.9,5.8L2.6,6.1L2.1,6.6L1.7,6.9L1.2,7.5L0.9,7.8L0.4,8.3L0,8.7l0,0v1.1v0.6v1.1v0.6
			v1.1v0.6v1.1v0.6v1.1v0.6v1.1v0.6v1.1v0.7v1.1v0.6v1.1V24v1.1v0.6v1.1v0.6v1.1v0.6v1.1v0.6v1.1v0.6v1.1v0.6v1.1v0.6V37v0.6v1.1
			v0.6v1.1V41V42v0.6v1.1v0.6v0.8l3.9,3.9l0,0l8.7,8.7h0.8l-3.9-3.9h0.6l3.9,3.9h1.1l-3.9-3.9h0.6l3.9,3.9h1.1l-3.9-3.9h0.6l3.9,3.9
			h1.1l-3.9-3.9h0.6l3.9,3.9h1.1l-3.9-3.9h0.6l3.9,3.9h1.1L18,53.9h0.6l3.9,3.9h1.1l-3.9-3.9h0.6l3.9,3.9h1.1l-3.9-3.9H22l3.9,3.9
			h1.1l-3.9-3.9h0.6l3.9,3.9h1.1l-3.9-3.9h0.6l3.9,3.9h1.1l-3.9-3.9h0.6l3.9,3.9H32l-3.9-3.9h0.6l3.9,3.9h1.1l-3.9-3.9h0.6l3.9,3.9
			h1.1l-3.9-3.9h0.6l3.9,3.9h0.2l0.5-0.5l-3.9-3.9l0.3-0.3L37,57l0.5-0.5l-3.9-3.9l0.3-0.3l3.9,3.9l0.5-0.5l-3.9-3.9l0.3-0.3
			l3.9,3.9l0.5-0.5l-3.9-3.9l0.3-0.3l3.9,3.9l0.5-0.5l-3.7-3.6l0.3-0.3l3.9,3.9l0.5-0.5l-3.9-3.9l0.3-0.3l3.9,3.9l0.5-0.5l-3.9-3.9
			l0.3-0.3l3.9,3.9l0.5-0.5l-3.9-3.9l0.3-0.3l3.9,3.9l0.5-0.5l-3.9-3.9l0.3-0.3l3.9,3.9l0.5-0.5l-3.9-3.9l0.3-0.3l3.9,3.9l0.2-0.2
			v-0.7l-3.9-3.9v-0.6l3.9,3.9V47l-3.9-3.9v-0.6v-0.2l3.9,3.9v-1.1l-3.9-3.9v-0.5v-0.3l3.9,3.9v-1.1l-3.9-3.9v-0.4v-0.4l3.9,3.9
			v-1.1l-3.9-3.9v-0.2v-0.6l3.9,3.9v-1.1l-3.9-3.9v-0.1V35l3.9,3.9v-1.1L41.1,34l0,0h-0.1h-0.6h-1.1h-0.6h-1.1h-0.6H36h-0.6h-1.1
			h-0.6h-1.1H32h-1.1h-0.7h-1.1h-0.6h-1.1h-0.6h-0.6v0.5v0.4V36v0.6v1.1v0.6v1.1V40v0.2l-0.4,0.5l-0.3,0.3l-0.5,0.5l-0.3,0.3
			L24.5,42h-0.9H23h-1.1h-0.6h-1.1h-0.6h-0.8v-0.8l-3.9-3.9v-0.6l3.9,3.9v-1.1l-3.9-3.9V35l3.9,3.9v-1.1l-3.9-3.9v-0.6l3.9,3.9v-1.1
			l-3.9-3.9v-0.6l3.9,3.9v-1.1l-3.9-3.9v-0.6l3.9,3.9v-1.1l-3.9-3.9v-0.8l3.9,3.9v-1.1L14.9,27v-0.6l3.9,3.9v-1.1l-3.9-3.9v-0.6
			l3.9,3.9v-1.1l-3.9-3.9V23l3.9,3.9v-1.1l-3.9-3.9v-0.7l3.9,3.9V24l-3.9-3.9v-0.6l3.9,3.9v-1.1l-3.9-3.9v-0.6l3.9,3.9v-1.1
			l-3.9-3.9v-0.6l3.9,3.9v-1.1L14.9,15v-0.6l3.9,3.9v-0.4l0.3-0.4l-3.9-3.9l0.3-0.3l3.9,3.9l0.5-0.5L16,12.8l0.3-0.3l3.9,3.9
			l0.2-0.2h0.7l-3.9-3.9h0.6l3.9,3.9h1.1L19,12.2h0.6l3.9,3.9h1.1l-3.9-3.9h0.6l3.9,3.9h1.1l-3.9-3.9H23l3.2,3.2v0.6l0,0v1.1v0.6
			v1.1v0.6v1.1v0.1l0,0l3.9,3.9h1.1l-3.9-3.9h0.1h0.7l3.9,3.9H33l-3.9-3.8h0.6l3.9,3.9h1.1l-3.9-3.9h0.6l3.9,3.9h1.1l-3.9-3.9h0.6
			l3.9,3.9h1.1l-3.9-3.9h0.6l3.9,3.9h1.1l-3.9-3.9h0.6l3.9,3.9h1.1l-3.9-3.9h0.6l3.9,3.9h1.1l-3.9-3.9h0.4c0.1,0,0.1,0,0.2,0
			l3.9,3.9c0.3-0.1,0.5-0.2,0.7-0.4l-3.9-3.9c0.1-0.1,0.2-0.2,0.3-0.4l3.9,3.9c0.1-0.2,0.2-0.4,0.2-0.6v-0.3L41,19.1v-0.6l3.9,3.9
			v-1.1L41,17.4v-0.6l4,3.9v-1.1l-3.9-3.9v-0.6L45,19v-1.1L41.1,14v-0.6l3.9,3.9v-1.1l-3.9-3.9v-0.6l3.9,3.9v-1.1l-3.9-3.9V10V9.7z
			 M18.5,42h-0.6l-3-3v-0.6L18.5,42z M24,12.2h0.5l1.7,1.7v0.5L24,12.2z M39.9,10.3v0.6V12v0.6v1.1v0.6v1.1V16V17v0.6v1.1v0.6v0.2
			h-1h-0.6h-1.1h-0.6h-1.1h-0.6h-1.1h-0.6h-1.1h-0.6h-1.1h-0.6h-1.1h-0.6h-0.5v-0.4v-0.6v-1.1v-0.6v-1.1v-0.6v-1.1v-0.4L24.8,11
			h-0.4h-1.1h-0.6h-1.1h-0.6H20h-0.6h-1.1h-0.6h-1.1h-0.2l-0.3,0.1l-0.5,0.5L15.3,12l-0.5,0.5l-0.3,0.3l-0.5,0.5l-0.3,0.3v0.2v1.1
			v0.6v1.1v0.6v1.1v0.6v1.1v0.6v1.1v0.6v1.1v0.6V25v0.6v1.1v0.6v1.1V29v1.1v0.6v1.1v0.6v1.1v0.6v1.1V36v1.1v0.6v1.1v0.6v1.1l0,0
			l2.7,2.7l0,0h1.1h0.6h0.7h0.4h0.6h1.1h0.6h1.1h0.6h1.1h0.6l0,0l0.5-0.5l0.3-0.3l0.5-0.5l0.3-0.3l0.5-0.5l0.3-0.3l0.1-0.1v-0.8
			v-0.6V38v-0.6v-1.1v-0.6v-0.6h0.5h0.6h1.1h0.6h1.1h0.6H33h0.6h1.1h0.8h1.1h0.6h0.4h0.6h0.6h1V36v0.6v1.1v0.6v1.1V40v1.1v0.6v1.1
			v0.6v1.1v0.6l0,0l-0.5,0.5L39,46.1l-0.5,0.5l-0.3,0.3l-0.5,0.5l-0.3,0.3l-0.5,0.5l-0.3,0.3l-0.5,0.5l-0.3,0.3L35,50l-0.3,0.3
			l-0.5,0.5l-0.3,0.3l-0.5,0.5L33,52l-0.5,0.5l-0.3,0.3h-0.1h-1.1h-0.6h-1.1h-0.6h-1.1h-0.6H26h-0.6h-1.1h-0.6h-1.1H22h-1.1h-0.8
			h-1.1h-0.6h-1.1h-0.6h-1.1H15H14h-0.6h-1.1h-0.6h-1.1H10H9.3l-5.4-5.3l-2.5-2.5v-0.7v-0.6v-1.1v-0.6v-1.1v-0.6v-1.1v-0.6v-1.1
			v-0.6v-1.1v-0.6v-1.1v-0.6v-1.1v-0.6v-1.1v-0.6V29v-0.6v-1.1v-0.8v-1.1v-0.6v-1.1v-0.6V22v-0.6v-1.1v-0.7v-1.1v-0.6v-1.1v-0.6
			v-1.1v-0.6v-1.1v-0.6v-1.1v-0.6v-1.1V9.4V9.1l0.4-0.4L2,8.4l0.5-0.5l0.3-0.4l0.5-0.5l0.3-0.3L4.2,6l0.3-0.3l0.5-0.5l0.3-0.3
			l0.5-0.5L6.2,4l0.5-0.5l0.3-0.3l0.5-0.5l0.3-0.4l0.5-0.5l0.3-0.3L9,1.2h0.7h0.6h1.1h0.6h1.1h0.6h1.1h0.6h1.1h0.6h1.1h0.6h1.1h0.6
			h1.1h0.6h1.1h0.6H25h0.6h1.1h0.6h1.1h0.7h1.1h0.6h1.1h0.2l2.6,2.6l5.1,5.1v0.3L39.9,10.3L39.9,10.3z"/>
		<path class="st0" d="M37.8,9.7L32,3.9l-0.1-0.1c-0.2-0.2-0.5-0.4-0.7-0.5C30.9,3.1,30.5,3,30.2,3C30.1,3,30,3,30,3h-0.8h-0.6h-1.1
			h-0.6h-1.1h-0.6h-1.1h-0.6h-1.1h-0.7h-1.1H20H19h-0.6h-1.1h-0.6h-1.1h-0.6h-1.1h-0.6h-1.1h-0.6h-1.1h-0.3L10,3.2L9.5,3.7L9.2,4
			L8.6,4.6L8.3,4.9L7.8,5.4L7.5,5.7L6.9,6.2L6.6,6.6L6.1,7.1L5.8,7.4L5.2,7.9L4.9,8.3L4.4,8.8L4.1,9.1L3.5,9.6l-0.4,0.4L3,10.2v7.8
			v12v0.6v1.1v0.6v1.1V34V35v0.6v1.1v0.6v1.1v0.6v1.1v0.6v1.1v0.6v1.1v0.4l0.8,0.8l6.2,6.2h0.4h1.1h0.6h1.1h0.6H15h0.6h1.1h0.6h1.1
			h0.7h1.1h0.6h1.1h0.6h1.1h0.6h1.1h0.6h1.1h0.6h1.1h0.6h1.1h0.6h0.3l0.4-0.4l0.3-0.3l0.5-0.5l0.3-0.3l0.5-0.5l0.3-0.3l0.5-0.5
			l0.3-0.3l0.5-0.5l0.3-0.3l0.5-0.5l0.3-0.3l0.5-0.5l0.3-0.3l0.5-0.5l0.3-0.3l0.4-0.4v-0.3V43V42v-0.6v-1.1v-0.6v-1.1V38v-1.1v-0.2
			h-0.2H37h-0.6h-1.1h-0.6h-1.1H33h-0.1h-1h-0.6h-1.1h-0.6h-0.4v0.7V38v1.1v0.6v1.1v0.6v0.1L28.8,42l-0.4,0.4l-0.5,0.5l-0.3,0.3
			l-0.5,0.5L26.7,44l-0.5,0.5l-0.3,0.3l-0.1,0.1h-1h-0.6h-1.1h-0.6h-1.1h-0.6h-1.1h-0.2h-0.4h-1.1h-0.6h-1.1h-0.6h-0.4L12,41.6v-0.5
			v-0.6v-1.1v-0.6v-1.1v-0.6v-1.1v-0.6v-1.1v-0.6v-1.1V32V31v-0.6v-1.1v-0.6v-1.1v-0.6v-1.1v-0.6v-1.1v-0.6v-1.1v-0.6v-1.1v-0.6
			v-1.1v-0.6v-1.1v-0.6v-1.1v-0.9v-1.1v-0.6v-0.6l0.3-0.3l0.3-0.3l0.5-0.5l0.3-0.3l0.5-0.5l0.3-0.3l0.5-0.5l0.3-0.3l0.2-0.2H16h0.6
			h1.1h0.6h1.1h0.6h1.1h0.6h1.1h0.6h1.1h0.6h0.7l3.4,3.4v0.7V14V15v0.6v1.1v0.6v0.4h0.4h0.6h1.1h0.6H33h0.6h1.1h0.6h1.1h0.7h1.1h0.1
			v-0.6v-1.1v-0.6v-1.1v-0.6v-1.1v-0.6V11v-0.3c0-0.1,0-0.3-0.1-0.4C38.1,10.1,38,9.9,37.8,9.7z"/>
	</g>
</g>
</svg>
