<?xml version="1.0" encoding="utf-8"?>
<!-- Generator: Adobe Illustrator 22.1.0, SVG Export Plug-In . SVG Version: 6.00 Build 0)  -->
<svg version="1.1" id="Capa_1" xmlns="http://www.w3.org/2000/svg" xmlns:xlink="http://www.w3.org/1999/xlink" x="0px" y="0px"
	 width="24.6px" height="20px" viewBox="0 0 24.6 20" style="enable-background:new 0 0 24.6 20;" xml:space="preserve">
<style type="text/css">
	.st0{fill:#38563c;}
</style>
<g>
	<g>
		<path class="st0" d="M24.6,2.4c-0.9,0.4-1.9,0.7-2.9,0.8c1-0.6,1.8-1.6,2.2-2.8c-1,0.6-2.1,1-3.2,1.2C19.8,0.6,18.5,0,17,0
			C14.3,0,12,2.3,12,5c0,0.4,0,0.8,0.1,1.2C7.9,6,4.2,4,1.7,0.9C1.3,1.7,1,2.5,1,3.5c0,1.8,0.9,3.3,2.2,4.2C2.5,7.6,1.7,7.4,1,7v0.1
			c0,2.4,1.7,4.5,4.1,5c-0.4,0.1-0.9,0.2-1.3,0.2c-0.3,0-0.6,0-1-0.1c0.6,2,2.5,3.5,4.7,3.5c-1.7,1.4-3.9,2.2-6.3,2.2
			c-0.4,0-0.8,0-1.2-0.1C2.2,19.2,4.9,20,7.7,20c9.3,0,14.4-7.7,14.4-14.4l0-0.7C23.1,4.3,23.9,3.4,24.6,2.4z"/>
	</g>
</g>
</svg>
